# xmcd
#
# Track frame offsets:
#	150
#	19031
#	40794
#	54707
#	69209
#	86841
#	108052
#	122118
#	140679
#	152736
#	170377
#	191601
#	205905
#	222801
#	234823
#	249570
#	262306
#	281242
#	296347
#	311251
#	337396
#
# Disc length: 4795 seconds
#
# Revision: 1
# Processed by: cddbd v1.5PL3 Copyright (c) Steve Scherf et al.
# Submitted via: audiograbber 1.82.02
#
DISCID=3912b915
DTITLE=Various Artist - CMC Country 2003 Disc 1
DYEAR=1900
DGENRE=Country
TTITLE0=Kasey Chambers - If I Were You
TTITLE1=Adam Brand - The Anzac
TTITLE2=Melinda Schneider - Can You Here Me Down The Hillside
TTITLE3=Adam Harvey - When Lonely Met Love
TTITLE4=Sara Storer - Tell These Hands
TTITLE5=Lee Kernaghan - The Odyssey
TTITLE6=John Williamson with Warren H Williams - You Are Very Welcome
TTITLE7=Beccy Cole - Little Victories
TTITLE8=Josh Arnold - Yoseo Trailer
TTITLE9=Luke O'Shea and Medicine Wheel - No Day Like Today
TTITLE10=Jimmy Little featuring Troy Carrar-Daley - Down The Road
TTITLE11=Audrey Auld - Losing Faith
TTITLE12=Bill Chambers - I Drink
TTITLE13=Michael Carr - Wham Bam
TTITLE14=Dianna Corcoran - Little Bit Crazy
TTITLE15=John Williamson - Keep Australia Beautiful
TTITLE16=Steve Forde and The Flange - What I'm Talkin About
TTITLE17=Jake Nickolai - Faster
TTITLE18=Carter and Carter with Darren Coggan - Busy Man
TTITLE19=Cathrine Britt - Help Me I'm Falling
TTITLE20=data track - Data Track
EXTD=
EXTT0=
EXTT1=
EXTT2=
EXTT3=
EXTT4=
EXTT5=
EXTT6=
EXTT7=
EXTT8=
EXTT9=
EXTT10=
EXTT11=
EXTT12=
EXTT13=
EXTT14=
EXTT15=
EXTT16=
EXTT17=
EXTT18=
EXTT19=
EXTT20=
PLAYORDER=
